<?xml version="1.0" encoding="UTF-8"?>
<svg id="Calque_1" data-name="Calque 1" xmlns="http://www.w3.org/2000/svg" xmlns:xlink="http://www.w3.org/1999/xlink" viewBox="0 0 1195.38 755.38">
  <defs>
    <style>
      .cls-1 {
        opacity: .39;
      }

      .cls-2 {
        fill: none;
      }

      .cls-2, .cls-3, .cls-4, .cls-5 {
        stroke-width: 0px;
      }

      .cls-3 {
        fill: #f7f9f9;
        opacity: .1;
      }

      .cls-4 {
        fill: url(#Dégradé_sans_nom_36);
      }

      .cls-6 {
        clip-path: url(#clippath);
      }

      .cls-5 {
        fill: url(#Dégradé_sans_nom_35);
      }
    </style>
    <linearGradient id="Dégradé_sans_nom_36" data-name="Dégradé sans nom 36" x1="-81.72" y1="-1.92" x2="460.97" y2="298.03" gradientUnits="userSpaceOnUse">
      <stop offset=".1" stop-color="#bf9444"/>
      <stop offset=".13" stop-color="#ab8946"/>
      <stop offset=".19" stop-color="#85754c"/>
      <stop offset=".26" stop-color="#656450"/>
      <stop offset=".34" stop-color="#4a5654"/>
      <stop offset=".42" stop-color="#364b57"/>
      <stop offset=".52" stop-color="#274359"/>
      <stop offset=".63" stop-color="#1f3f5a"/>
      <stop offset=".82" stop-color="#1d3e5b"/>
    </linearGradient>
    <clipPath id="clippath">
      <rect class="cls-2" y="-3.08" width="1201.85" height="756.92"/>
    </clipPath>
    <linearGradient id="Dégradé_sans_nom_35" data-name="Dégradé sans nom 35" x1="-288.26" y1="699.95" x2="1574.01" y2="789.91" gradientUnits="userSpaceOnUse">
      <stop offset=".1" stop-color="#bf9444"/>
      <stop offset=".16" stop-color="#ac8a46"/>
      <stop offset=".39" stop-color="#6f694f"/>
      <stop offset=".58" stop-color="#425255"/>
      <stop offset=".73" stop-color="#274359"/>
      <stop offset=".82" stop-color="#1d3e5b"/>
    </linearGradient>
  </defs>
  <rect class="cls-4" y="-3.08" width="1201.85" height="756.92"/>
  <g class="cls-1">
    <g class="cls-6">
      <path class="cls-3" d="m357.67-73.34c1.56,1.32,2.46,2.66,1.98,5.03-.26,1.27,1.34,2.82,1.58,4.32.25,1.58-.79,3.64-.11,4.82,4,6.95,3.61,14.82,4.85,22.29,5.8,35.11,14.56,69.38,28.44,102.22,2.11,5,4.81,9.76,7.15,14.68,2.21,4.66,4.26,9.39,6.45,14.06.88,1.89,1.8,3.78,2.93,5.52,3.18,4.92,6.47,9.77,9.74,14.62,3.59,5.31,6.91,10.85,10.95,15.8,1.84,2.25,3.11,4.75,4.8,7.02,1.73,2.33,3.83,4.4,5.88,6.47,2.15,2.17,4.4,4.25,6.68,6.29,7.79,6.99,15.39,14.2,23.46,20.85,8.92,7.36,18.25,14.22,27.45,21.23,1.4,1.06,3.11,1.7,4.6,2.67.79.52,1.79,1.21,2.02,2.01.54,1.94,1.61,2.64,3.55,2.85.94.1,2.15.99,2.6,1.86,1.51,2.91,4.1,4.49,6.73,6.09,1.07.65,2.21,1.29,3.05,2.19.78.83,1.78,2.12,1.61,2.99-.19.95-1.49,2.12-2.52,2.39-5.25,1.38-10.58,2.46-15.87,3.73-1.56.38-3.03,1.07-4.56,1.56-.79.26-1.6.5-2.43.6-11.49,1.33-22.97,2.92-34.6,1.9-4-.35-8.07-.29-12-1.01-3.12-.57-6.12-1.22-9.31-.62-.87.16-2.19-.07-2.74-.65-1.73-1.83-3.34-.8-4.96-.12-1.8.76-2.58,2.18-1.85,4.07,1.1,2.86,1.92,5.95,3.61,8.44,3.18,4.69,6.46,9.31,10.18,13.68,7.37,8.66,15.77,16.21,23.98,23.97,3.42,3.23,7.3,6.04,11.21,8.68,4.97,3.36,10.22,6.29,15.28,9.51,16.92,10.76,35.04,19.12,53.75,26.12,11.87,4.44,24.09,7.94,36.15,11.88,1.5.49,3.74.21,3.95,2.39.23,2.37-2.1,2.69-3.66,3.41-11.14,5.15-22.92,7.97-35.06,9.21-10.41,1.06-20.86,1.7-31.3,2.46-5.95.43-6.55,1.71-3.81,6.88,5.93,11.2,14.16,20.31,24.1,28.06,5.61,4.38,10.91,9.15,16.34,13.76,8.44,7.17,17.42,13.51,27.43,18.34,12.06,5.83,24,11.9,36.15,17.53,9,4.17,18.51,7,28.15,9.36,4.87,1.19,9.68,2.66,14.48,4.12,1.21.37,2.29,1.16,4.29,2.22-2.17,1.35-3.43,2.38-4.87,3-5.56,2.41-11.45,3.33-17.43,4.16-5.07.7-10.06,2.13-15.01,3.49-.93.26-1.98,1.6-2.16,2.6-.12.67,1.03,1.96,1.89,2.35,21.26,9.46,41.26,21.74,63.69,28.63,5.85,1.8,11.49,4.29,17.19,6.53,1.15.45,2.27,1.13,3.21,1.92,1.58,1.32,1.53,2.53-.04,3.8-.64.52-1.4.95-2.18,1.23-15.98,5.82-31.78,12.24-48.02,17.23-18.34,5.63-37.4,5.95-56.45,4.74-11.44-.73-22.79-2.01-33.86-5.18-.27-.08-.58-.22-.81-.15-1.26.38-2.79.51-3.69,1.32-1.25,1.12-.49,2.57.41,3.74,3.92,5.08,7.61,10.37,11.82,15.2,10.43,12,22.85,21.7,35.94,30.6,27.52,18.71,57.31,32.93,88.35,44.64,16.7,6.31,33.53,12.29,50.28,18.44,1.96.72,3.97,1.41,5.77,2.46,1.51.87,2.73,2.24,4.08,3.38v.84c-1.7,1.79-3.2,3.83-5.13,5.33-13.03,10.12-27.76,17.11-43.03,23.05-24.17,9.38-49.15,15.62-74.76,19.51-17.83,2.71-35.72,4.73-53.76,4.75-48.26.05-93.67-11.16-136.01-34.63-20.5-11.37-41.24-22.32-61.91-33.38-3.56-1.91-7.25-3.62-10.99-5.12-4.14-1.66-6.05-4.37-6.01-8.95.13-15.23.02-30.46,0-45.69,0-7.75,1.29-8.72,8.61-6.3,18.87,6.23,36.79,14.65,54.43,23.72,21.1,10.85,42.06,21.98,63.36,32.4,18.57,9.08,37.81,16.57,57.95,21.56,23.52,5.82,47.22,6.44,71.05,2.47,12.24-2.04,24.38-4.8,36.66-6.51,7.78-1.08,15.37-2.63,22.85-4.89,1.43-.43,3.41-.46,3.49-2.39.09-2.29-1.95-2.79-3.73-3.26-13.61-3.65-27.28-7.06-40.81-10.95-51.55-14.83-95.68-42.38-134.31-79.17-22.62-21.54-41.58-45.95-56.03-73.72-5.61-10.78-10.72-21.81-14.35-33.44-.5-1.59-1.98-3.61.05-4.96,2.02-1.35,3.2.9,4.59,1.86,23.58,16.21,46.18,33.86,70.83,48.5,16.48,9.79,33.87,17.72,51.76,24.55,13.7,5.23,27.99,7.49,42.58,8.1,13.16.55,26.22-.79,39.29-1.94,8.2-.73,16.41-1.44,24.61-2.18,1.25-.11,2.53-.15,3.72-.49,2.35-.68,3.26-2.19,3.12-4.78-.13-2.33-1.01-3.38-3.7-3.7-3.05-.36-6.13-.37-9.19-.66-28.68-2.7-55.16-12.23-80.27-25.97-13.98-7.65-27.41-16.16-40.18-25.71-.56-.42-1.26-.74-1.63-1.29-.5-.74-1.18-1.8-.97-2.45.21-.62,1.5-1.29,2.26-1.24,5.43.34,10.87.66,16.26,1.35,11.95,1.55,23.89,2.35,35.87.36,1.79-.3,3.61-.52,5.31-1.1,1.82-.62,2.01-2.37.51-3.54-.65-.51-1.43-.87-2.21-1.18-5.06-1.99-10.01-4.37-15.22-5.84-35.59-10.01-67.27-27.53-96.51-49.84-21.52-16.41-41.05-34.91-58.64-55.47-8.12-9.49-14.85-19.92-20.76-30.89-.39-.73-.8-1.5-.96-2.3-.49-2.53,1.68-4.36,4.12-3.45.88.33,1.75.92,2.42,1.59,9.18,9.26,20.55,14.71,32.58,19.13,19.48,7.16,39.59,10.5,60.31,10.46.84,0,1.75.2,2.49-.08,1.07-.39,2-1.13,3-1.71-.63-.98-1.04-2.39-1.94-2.88-5.15-2.79-10.32-5.57-15.66-7.96-9.45-4.23-18.67-8.84-27.34-14.51-24.56-16.06-44.27-36.99-60.89-60.99-8.14-11.75-14.86-24.3-20.17-37.57-1.54-3.86-2.56-7.95-3.61-11.99-.4-1.52-1.18-3.44.64-4.6,1.6-1.02,2.89.35,4.17,1.11,4.07,2.44,8.12,4.92,12.17,7.4,22.4,13.74,46.74,21.64,72.87,24.05,4.72.44,9.47.53,14.21.76.83.04,1.75.17,2.49-.1.84-.31,1.93-.89,2.15-1.6.21-.67-.4-1.8-.96-2.44-.62-.7-1.61-1.08-2.43-1.61-15.62-10.03-31.53-19.64-46.79-30.2-21.36-14.77-40.34-32.24-56.1-53.04-11.93-15.74-21.35-32.75-25.86-52.14-1.58-6.79-2.57-13.72-4.02-20.54-.38-1.77,0-4.45-2.43-4.89-2.63-.47-2.93,2.39-3.56,3.94-1.5,3.72-2.92,7.59-3.54,11.53-3.71,23.51-14.9,43.05-31.22,59.94-8.77,9.08-18.49,16.96-29.14,23.78-9.64,6.17-19.01,12.75-28.49,19.16-.58.39-1.17.78-1.67,1.26-2.11,2.03-1.63,4.12,1.23,4.95,4.71,1.36,9.43.51,14.12-.21,2.48-.38,4.93-.95,7.41-1.37,1.49-.25,3.39-.87,4.06.93.38,1.04-.13,2.72-.78,3.78-5.42,8.71-11.94,16.53-19.79,23.17-9.31,7.87-19.46,14.51-30.17,20.31-2.38,1.29-5.1,2.27-5.97,5.73.99.32,1.86.89,2.69.83,3.74-.27,7.57-.32,11.2-1.16,20-4.61,37.42-14.19,52.93-27.57,11.44-9.87,22.36-20.24,32.52-31.42,1.22-1.34,2.59-2.55,3.76-3.93,1.15-1.36,2.47-1.64,4.4-.99-.22,3.83-1.18,7.59-2.83,11.02-.57,1.19-1.2,2.27-1.51,3.61-.51,2.17-1.13,4.34-1.98,6.39-2.94,7.09-5.78,14.24-9.08,21.16-2.33,4.9-5.21,9.55-8.06,14.18-11.2,18.2-25.34,34.01-40.29,49.14-1.95,1.98-4.18,3.7-6.33,5.48-1.29,1.07-2.71,1.97-4.01,3.04-16.67,13.68-34.63,25.44-53.26,36.25-7.48,4.34-14.65,9.22-21.96,13.86-.59.37-1.21.72-1.73,1.17-2.36,2.01-1.92,4.25,1.05,5.28.78.27,1.63.41,2.45.49,20.59,1.84,40.68-.36,60.12-7.63,6.01-2.25,12.03-4.45,18.03-6.72,2.08-.79,4.18-1.15,5.89.48,1.67,1.59,1.15,3.75.35,5.51-2.9,6.34-5.51,12.89-9.13,18.81-5.74,9.41-12.13,18.42-18.41,27.48-1.56,2.24-3.81,4-5.7,6.02-.65.7-1.54,1.45-1.69,2.29-.58,3.11-2.66,5.22-4.71,7.28-28.78,28.99-60.1,54.67-96.29,74-17.29,9.23-35.21,16.9-54.12,22.17-.67.19-1.36.34-2,.6-2.43.97-2.97,2.99-1.17,4.9.94,1,2.15,1.77,3.33,2.51,10.48,6.66,22.03,10.04,34.32,11.04,29.68,2.42,58.13-3.01,85.57-14,10.2-4.09,20.05-9.13,29.86-14.14,8.45-4.31,16.61-9.18,24.91-13.79,1.08-.6,2.2-1.15,3.27-1.71,2.17,1.13,1.42,2.61.61,3.91-3.6,5.8-6.89,11.85-11.01,17.26-4.82,6.31-10.24,12.19-15.66,18.01-14.86,15.99-31.44,30.15-47.77,44.58-3.45,3.05-6.93,6.08-10.36,9.15-2.33,2.09-4.82,2.9-8.06,2.25-10.23-2.04-20.96,4.81-22.23,15.25-.56,4.64-3.09,7.91-7.04,10.32-13.27,8.09-27.18,14.84-41.72,20.3-.78.29-1.58.56-2.4.72-1.79.36-2.92-.26-3.34-2.18-.83-3.83-.15-7.23,2.68-10.03.89-.87,1.94-1.59,2.98-2.3,13.61-9.27,24.34-21.27,33.18-35.05.23-.35.46-.7.66-1.07,1.95-3.53,1.59-5.14-1.72-7.38-4.27-2.89-9.12-4.23-14.14-4.83-9.76-1.17-18.75-4.45-26.85-9.91-12.78-8.61-24.43-18.61-35.04-29.78-4.52-4.76-4.33-5.88,1.58-8.74,6.9-3.35,13.92-6.46,20.97-9.49,24.16-10.38,47.57-22.18,69.28-37.11,25.38-17.45,46.07-39.66,64.26-64.31,4.16-5.64,3.42-7.74-3.45-9.71-11.8-3.38-23.73-6.31-35.5-9.78-5.18-1.53-10.31-3.54-15.09-6.04-3.39-1.77-6.39-4.5-9.14-7.23-3.57-3.56-3.01-6.02,1.48-8.53,1.7-.95,3.51-1.7,5.3-2.5,17.24-7.68,33.92-16.41,49.59-26.98,26.57-17.93,49.08-40.01,67.39-66.34.96-1.37,1.94-2.75,2.7-4.23,1.14-2.25.08-3.89-2.5-3.75-1.5.08-3,.58-4.46,1.02-12.07,3.61-24.31,6.23-36.95,6.79-9.69.43-19.24-.39-28.69-2.54-1.47-.33-3.3-.3-3.59-2.26-.32-2.14,1.5-2.82,2.98-3.53,9.05-4.36,18.12-8.68,27.19-13.01,4.91-2.34,9.82-4.68,14.72-7.04.75-.36,1.51-.75,2.19-1.22,3.03-2.07,3.04-4.15-.23-6.02-1.91-1.09-4.04-1.99-6.19-2.45-7.09-1.52-14.22-2.81-21.34-4.18-1.51-.29-3.12-.3-4.51-.86-1.03-.42-2.3-1.43-2.49-2.37-.19-.94.76-2.17,1.36-3.19.26-.43.88-.67,1.36-.94,7.17-4.05,14.25-8.25,21.53-12.09,10.81-5.7,20.84-12.52,29.83-20.77,7.7-7.07,15.17-14.39,22.5-21.84,2.71-2.75,4.71-6.19,7.04-9.32,10.14-13.58,18.97-28.01,26.33-43.24,4.38-9.07,8.22-18.48,10.45-28.44,1.09-4.88,2.84-9.61,4.03-14.47.79-3.24.95-6.62,1.68-9.88,1.06-4.76,2.19-9.5,2.93-14.32,1.54-10.15,2.92-20.33,4.48-30.48.67-4.37,1.67-8.7,2.47-13.05,1.42-7.78,2.72-15.59,4.25-23.35.59-2.99,1.67-5.87,2.53-8.81.56,0,1.12,0,1.68,0Z"/>
    </g>
  </g>
  <rect class="cls-5" x="-.72" y="731.93" width="1202.58" height="21.92"/>
</svg>